# Blender v3.0.0 OBJ File: 'MonItems.blend'
# www.blender.org
mtllib Rock2.mtl
o Cube.003
v 1.706053 1.134471 -22.962309
v 1.821496 3.444538 -22.967171
v 2.010417 3.670009 -26.402729
v 0.203941 3.298315 -21.193478
v 1.710305 3.241754 -22.024603
v 2.717272 3.380887 -22.968241
v 0.430239 2.757928 -20.238945
v 0.918668 3.242886 -21.228559
v 1.706053 1.134471 -22.164391
v 1.706053 0.749830 -22.962309
v 1.866558 0.217599 -24.431057
v 0.411972 0.245481 -21.068432
v 2.057253 1.134471 -22.962309
v 3.358633 2.562543 -22.962540
v 1.706053 1.889497 -20.598125
v 2.289372 0.411199 -24.990068
v -0.243190 4.102244 -25.770657
v 0.199823 1.137055 -25.794464
v 1.263474 3.124894 -26.766233
v -1.331075 3.398849 -22.644455
v -0.889480 3.430853 -21.553522
v -1.304211 4.098006 -22.649530
v -1.247860 0.444116 -23.638773
v -0.612421 0.311556 -21.399120
v -1.458183 4.242110 -23.386938
v 0.397296 2.702039 -20.146534
v -0.286950 1.429697 -20.499277
v -0.415541 2.851946 -20.785969
v 3.787689 2.741190 -23.572891
v 3.615702 3.338678 -23.884445
v 2.080992 4.023453 -26.408829
v 2.163075 4.311378 -26.226288
v 1.904371 3.613266 -26.605692
v 1.348958 3.267017 -26.832750
v 0.429564 4.294826 -26.511593
v 1.291796 3.365295 -26.841988
v 1.542473 1.823367 -20.363659
v 0.928952 1.232428 -20.195625
v 0.579404 2.338466 -19.943424
v 0.463793 1.820372 -19.955872
v 1.844164 3.896570 -22.967985
v -0.520605 4.351743 -24.094036
v 2.245857 4.770395 -24.663137
v -0.763773 4.167073 -22.599550
v -1.302966 4.282033 -23.457861
v -0.948856 3.699302 -25.048185
v -1.602691 3.957915 -23.875671
v 2.753092 0.862383 -25.062508
v -1.262774 1.036013 -24.908863
v -1.433271 0.703300 -24.112822
v -1.585495 2.325019 -24.321815
v -1.369608 1.707445 -24.815874
v 2.944726 3.360232 -26.010269
v 3.625664 3.344639 -24.237310
v 2.834554 3.264582 -26.163118
v 2.870893 3.334410 -26.125187
v 3.804714 2.665865 -23.751066
v 3.064555 1.504644 -25.249165
v 3.375089 1.737189 -24.645601
vt 0.511342 0.395907
vt 0.500476 0.396525
vt 0.499547 0.374070
vt 0.336014 0.552532
vt 0.364970 0.535409
vt 0.366438 0.555656
vt 0.354167 0.574872
vt 0.333206 0.553786
vt 0.380400 0.585455
vt 0.598167 0.578174
vt 0.598167 0.643935
vt 0.588252 0.643389
vt 0.553536 0.600818
vt 0.572784 0.578588
vt 0.627454 0.590275
vt 0.629954 0.605177
vt 0.615214 0.621426
vt 0.598167 0.603895
vt 0.546471 0.400728
vt 0.616932 0.342080
vt 0.619829 0.444907
vt 0.589721 0.449392
vt 0.597622 0.654856
vt 0.434853 0.399922
vt 0.439843 0.373505
vt 0.476395 0.331205
vt 0.480014 0.438352
vt 0.507223 0.451106
vt 0.488290 0.456175
vt 0.599874 0.548286
vt 0.598168 0.545660
vt 0.600045 0.542632
vt 0.646416 0.572700
vt 0.656618 0.572157
vt 0.658847 0.578174
vt 0.539675 0.507321
vt 0.514103 0.493725
vt 0.516003 0.489146
vt 0.537631 0.492000
vt 0.411577 0.504923
vt 0.411577 0.595064
vt 0.384612 0.510870
vt 0.632437 0.580461
vt 0.653499 0.578174
vt 0.648822 0.618035
vt 0.539675 0.595765
vt 0.544355 0.579419
vt 0.451350 0.412993
vt 0.440382 0.485621
vt 0.438248 0.484524
vt 0.437146 0.481043
vt 0.433321 0.428466
vt 0.484896 0.597185
vt 0.497662 0.517170
vt 0.536540 0.581692
vt 0.653499 0.651297
vt 0.625569 0.651227
vt 0.336682 0.516614
vt 0.324761 0.549660
vt 0.330272 0.521960
vt 0.453458 0.527835
vt 0.444434 0.597185
vt 0.433110 0.548501
vt 0.675239 0.578174
vt 0.675239 0.668359
vt 0.662398 0.669194
vt 0.653499 0.594395
vt 0.655380 0.579246
vt 0.658847 0.475827
vt 0.637766 0.567773
vt 0.622373 0.524316
vt 0.646011 0.476588
vt 0.400042 0.380991
vt 0.419514 0.380057
vt 0.426447 0.403273
vt 0.380789 0.393327
vt 0.474573 0.506032
vt 0.504009 0.485621
vt 0.552783 0.549769
vt 0.539675 0.511170
vt 0.546777 0.496275
vt 0.558931 0.485621
vt 0.622373 0.500479
vt 0.345625 0.369985
vt 0.333577 0.402039
vt 0.344721 0.469727
vt 0.347071 0.438508
vt 0.327438 0.436709
vt 0.324761 0.415332
vt 0.433110 0.417488
vt 0.433110 0.481825
vt 0.400268 0.504923
vt 0.360495 0.493275
vt 0.553357 0.325285
vt 0.619829 0.321854
vt 0.534656 0.390116
vt 0.527568 0.366579
vt 0.338046 0.349142
vt 0.336353 0.328253
vt 0.365834 0.321854
vt 0.372347 0.324554
vt 0.423000 0.355961
vt 0.449070 0.408166
vt 0.454793 0.392377
vt 0.499341 0.395154
vt 0.478519 0.325138
vt 0.497000 0.321854
vt 0.527568 0.346848
vt 0.527568 0.435759
vt 0.521383 0.450152
vt 0.572477 0.578174
vt 0.575699 0.568844
vt 0.581560 0.556253
vt 0.551584 0.551946
vt 0.622373 0.577639
vt 0.433110 0.418565
vt 0.669316 0.321854
vt 0.669316 0.418653
vt 0.643889 0.417722
vt 0.619829 0.391327
vt 0.620103 0.381510
vt 0.642253 0.333351
vt 0.577402 0.559562
vt 0.548842 0.553630
vn 1.0000 0.0000 0.0000
vn 0.0912 0.8757 0.4741
vn -0.1834 0.7942 0.5793
vn -0.0011 0.0029 1.0000
vn 0.3521 -0.1009 0.9305
vn -0.0738 -0.9968 -0.0294
vn 0.0000 0.0000 1.0000
vn 0.9993 -0.0168 0.0335
vn 0.8414 -0.4801 -0.2479
vn -0.2914 -0.2561 -0.9217
vn 0.8913 -0.1851 -0.4139
vn -0.1446 0.9649 0.2194
vn 0.0485 0.9955 0.0810
vn -0.6112 0.1115 0.7835
vn 0.6325 0.4966 0.5944
vn 0.9172 -0.0734 -0.3916
vn 0.0281 0.9534 0.3003
vn -0.2866 -0.5471 0.7864
vn 0.5678 0.5962 0.5676
vn -0.1449 0.9769 -0.1573
vn 0.0956 -0.0819 0.9920
vn 0.9714 -0.2316 0.0532
vn -0.9579 -0.1214 -0.2601
vn -0.4910 0.8077 -0.3264
vn 0.2600 -0.4550 -0.8517
vn -0.8512 0.1248 -0.5098
vn -0.9508 -0.0740 0.3009
vn -0.1694 -0.8972 -0.4079
vn -0.5960 -0.0757 -0.7994
vn 0.7005 -0.6416 0.3125
vn 0.2105 0.3420 -0.9158
vn 0.9620 0.2729 0.0132
vn 0.1433 0.9892 0.0293
vn 0.4470 0.7712 -0.4532
usemtl large_rock_blocks.001
s off
f 10/1/1 1/2/1 9/3/1
f 7/4/2 8/5/2 4/6/2
f 28/7/3 26/8/3 7/4/3 4/6/3 21/9/3
f 2/10/4 1/11/4 13/12/4 14/13/4 6/14/4
f 39/15/5 40/16/5 38/17/5 37/18/5
f 23/19/6 11/20/6 12/21/6 24/22/6
f 1/11/7 10/23/7 13/12/7
f 1/2/8 2/24/8 5/25/8 15/26/8 9/3/8
f 59/27/9 48/28/9 58/29/9
f 36/30/10 34/31/10 19/32/10
f 31/33/11 3/34/11 33/35/11
f 44/36/12 45/37/12 25/38/12 22/39/12
f 2/40/13 20/41/13 21/9/13 4/6/13 8/5/13 5/42/13
f 39/15/14 26/43/14 28/44/14 27/45/14 40/16/14
f 14/13/15 29/46/15 30/47/15 6/14/15
f 57/48/16 59/27/16 58/29/16 55/49/16 56/50/16 53/51/16 54/52/16
f 43/53/17 42/54/17 45/37/17 44/36/17 41/55/17
f 27/45/18 24/56/18 12/57/18 38/17/18 40/16/18
f 15/58/19 5/42/19 8/5/19 7/4/19 26/8/19 39/59/19 37/60/19
f 17/61/20 42/54/20 43/53/20 32/62/20 35/63/20
f 20/64/21 2/65/21 41/66/21 44/67/21 22/68/21
f 2/69/22 3/34/22 31/33/22 32/70/22 43/71/22 41/72/22
f 52/73/23 49/74/23 50/75/23 51/76/23
f 17/61/24 46/77/24 47/78/24 25/38/24 45/37/24 42/54/24
f 55/79/25 58/80/25 48/81/25 16/82/25 18/83/25 19/32/25 34/31/25
f 46/84/26 52/73/26 51/76/26 47/85/26
f 21/86/27 20/87/27 22/88/27 25/89/27 47/85/27 51/76/27 50/75/27 23/90/27 24/91/27 27/92/27 28/93/27
f 18/94/28 16/95/28 11/20/28 23/19/28 50/96/28 49/97/28
f 17/98/29 35/99/29 36/100/29 19/101/29 18/102/29 49/74/29 52/73/29 46/84/29
f 29/103/30 14/104/30 13/105/30 10/1/30 9/3/30 15/26/30 37/106/30 38/107/30 12/108/30 11/109/30 16/110/30 48/28/30 59/27/30 57/48/30
f 32/111/31 31/112/31 33/113/31 56/114/31 55/79/31 34/31/31 36/30/31 35/115/31
f 30/116/32 29/103/32 57/48/32 54/52/32
f 3/117/33 2/118/33 6/119/33 30/120/33 54/121/33 53/122/33
f 3/123/34 53/124/34 56/114/34 33/113/34
