# Blender v3.0.0 OBJ File: 'MonItems.blend'
# www.blender.org
mtllib Rock1.mtl
o Sphere
v -0.079694 2.123539 -4.402090
v 0.344660 1.868327 -4.834980
v -3.704600 6.496885 -11.190467
v -5.660676 2.418227 -10.257355
v -0.221082 4.151974 -4.825612
v -0.339620 3.991498 -4.678311
v -2.697041 6.726964 -9.618289
v -4.082336 5.504802 -9.120722
v -3.219146 6.796285 -9.849062
v -4.320441 1.548759 -9.819148
v -1.094762 1.290266 -6.653753
v -0.446676 1.303556 -6.362553
v -4.894242 2.476305 -13.166019
v -4.144244 3.095906 -14.350857
v -4.570728 1.900880 -12.080441
v 1.412269 4.196271 -14.208141
v 2.640830 4.454837 -6.490582
v 2.027953 2.020988 -6.006009
v 2.539414 5.856105 -9.803027
v 1.812220 1.784995 -7.002778
v -1.130084 2.429783 -13.954017
v -0.898430 3.080903 -15.163210
v 1.135994 2.473533 -12.813200
v 1.106403 3.543327 -15.022655
vt 0.932214 0.442470
vt 0.909272 0.326924
vt 0.914637 0.317175
vt 0.939786 0.327718
vt 0.936177 0.444438
vt 0.718300 0.325514
vt 0.783197 0.331563
vt 0.785636 0.420442
vt 0.676577 0.358351
vt 0.680091 0.337337
vt 0.778904 0.446887
vt 0.768962 0.451191
vt 0.664743 0.451191
vt 0.888229 0.468963
vt 0.867107 0.449782
vt 0.939786 0.466213
vt 0.928691 0.467119
vt 0.698319 0.230516
vt 0.768079 0.138399
vt 0.810278 0.159601
vt 0.815583 0.172563
vt 0.818019 0.261732
vt 0.790287 0.297537
vt 0.715256 0.277566
vt 0.826832 0.287634
vt 0.777863 0.318151
vt 0.816478 0.128142
vt 0.826832 0.128267
vt 0.776956 0.121785
vt 0.884751 0.317175
vt 0.850908 0.301693
vt 0.848541 0.183766
vt 0.914600 0.160480
vt 0.927549 0.188341
vt 0.913089 0.276294
vt 0.826832 0.179730
vt 0.839848 0.156116
vt 0.921054 0.121785
vt 0.927549 0.130656
vt 0.693106 0.292427
vt 0.664743 0.263691
vt 0.826832 0.391428
vt 0.750402 0.124017
vt 0.667982 0.249059
vt 0.701831 0.174218
vt 0.748948 0.325514
vn -0.3909 0.7010 0.5964
vn -0.1237 0.7139 -0.6893
vn 0.1741 0.9198 -0.3516
vn 0.5490 0.0933 0.8306
vn 0.0986 -0.9836 -0.1513
vn -0.5847 -0.8020 -0.1220
vn -0.1499 -0.9018 0.4053
vn 0.2456 -0.9479 0.2027
vn -0.7287 -0.1411 0.6701
vn -0.8918 0.4276 -0.1479
vn 0.2316 -0.8744 -0.4265
vn 0.1538 0.9056 0.3953
vn 0.9527 -0.2683 -0.1427
vn -0.1159 -0.8683 -0.4823
usemtl large_rock_blocks.001
s off
f 5/1/1 7/2/1 9/3/1 8/4/1 6/5/1
f 22/6/2 14/7/2 3/8/2 16/9/2 24/10/2
f 16/9/3 3/8/3 9/11/3 7/12/3 19/13/3
f 18/14/4 17/15/4 5/1/4 6/5/4 1/16/4 2/17/4
f 23/18/5 20/19/5 12/20/5 11/21/5 10/22/5 15/23/5 21/24/5
f 15/23/6 10/22/6 4/25/6 13/26/6
f 2/27/7 1/28/7 11/21/7 12/20/7
f 20/19/8 18/29/8 2/27/8 12/20/8
f 1/30/9 6/31/9 8/32/9 4/33/9 10/34/9 11/35/9
f 8/32/10 9/36/10 3/37/10 14/38/10 13/39/10 4/33/10
f 22/40/11 24/41/11 23/18/11 21/24/11
f 7/2/12 5/1/12 17/15/12 19/42/12
f 17/43/13 18/29/13 20/19/13 23/18/13 24/41/13 16/44/13 19/45/13
f 13/26/14 14/46/14 22/40/14 21/24/14 15/23/14
