# ProBuilder 4.5.2
# https://unity3d.com/unity/features/worldbuilding/probuilder
# 5/6/2022 3:20:22 PM

mtllib ./Cube_(8).mtl
o Cube (8)

g Cube (8)
v -79.00545 115.5071 -18.05412
v -90.96595 115.5071 -26.07044
v -79.00545 116.8299 -18.05412
v -90.96595 116.8299 -26.07044
v -74.22409 115.5071 -51.04963
v -74.22409 116.8299 -51.04963
v -62.26358 115.5071 -43.03332
v -62.26358 116.8299 -43.03332

vt 0 0
vt -5 0
vt 0 1
vt -5 1
vt 5 0
vt 5 1
vt 0 -5
vt 5 -5
vt -5 -5

vn -3.348372 0 4.99584
vn -2.392101 0 -1.603263
vn 3.348372 0 -4.99584
vn 2.392101 0 1.603263
vn 0 1.322867 0
vn 0 -1.322867 0

usemtl BrickWell
f 3/3/1 4/4/1 2/2/1 1/1/1
f 4/3/2 6/4/2 5/2/2 2/1/2
f 6/6/3 8/3/3 7/1/3 5/5/3
f 8/6/4 3/3/4 1/1/4 7/5/4
f 8/7/5 6/8/5 4/5/5 3/1/5
f 1/1/6 2/2/6 5/9/6 7/7/6

g Cube (11)
v -98.46482 115.5071 -22.86937
v -99.66313 115.5071 -37.21785
v -98.46482 116.8299 -22.86937
v -99.66313 116.8299 -37.21785
v -69.6967 115.5071 -39.72049
v -69.6967 116.8299 -39.72049
v -68.49839 115.5071 -25.37201
v -68.49839 116.8299 -25.37201

vt 0 0
vt -5 0
vt 0 1
vt -5 1
vt 5 0
vt 5 1
vt 0 -5
vt 5 -5
vt -5 -5

vn -5.993287 0 0.5005278
vn -0.239662 0 -2.869697
vn 5.993287 0 -0.5005278
vn 0.239662 0 2.869697
vn 0 1.322867 0
vn 0 -1.322867 0

usemtl BrickWell
f 11/12/7 12/13/7 10/11/7 9/10/7
f 12/12/8 14/13/8 13/11/8 10/10/8
f 14/15/9 16/12/9 15/10/9 13/14/9
f 16/15/10 11/12/10 9/10/10 15/14/10
f 16/16/11 14/17/11 12/14/11 11/10/11
f 9/10/12 10/11/12 13/18/12 15/16/12

g Cube (7)
v -97.44621 115.5071 -34.66933
v -109.4067 115.5071 -42.68564
v -97.44621 116.8299 -34.66933
v -109.4067 116.8299 -42.68564
v -92.66486 115.5071 -67.66484
v -92.66486 116.8299 -67.66484
v -80.70435 115.5071 -59.64853
v -80.70435 116.8299 -59.64853

vt 0 0
vt -5 0
vt 0 1
vt -5 1
vt 5 0
vt 5 1
vt 0 -5
vt 5 -5
vt -5 -5

vn -3.348372 0 4.99584
vn -2.392101 0 -1.603263
vn 3.348372 0 -4.99584
vn 2.392101 0 1.603263
vn 0 1.322867 0
vn 0 -1.322867 0

usemtl BrickWell
f 19/21/13 20/22/13 18/20/13 17/19/13
f 20/21/14 22/22/14 21/20/14 18/19/14
f 22/24/15 24/21/15 23/19/15 21/23/15
f 24/24/16 19/21/16 17/19/16 23/23/16
f 24/25/17 22/26/17 20/23/17 19/19/17
f 17/19/18 18/20/18 21/27/18 23/25/18

g Cube (6)
v -60.51178 115.5071 -42.83141
v -72.05542 115.5071 -34.22564
v -60.51178 116.8299 -42.83141
v -72.05542 116.8299 -34.22564
v -90.02835 115.5071 -58.33422
v -90.02835 116.8299 -58.33422
v -78.48471 115.5071 -66.94
v -78.48471 116.8299 -66.94

vt 0 0
vt -5 0
vt 0 1
vt -5 1
vt 5 0
vt 5 1
vt 0 -5
vt 5 -5
vt -5 -5

vn 3.594587 0 4.821717
vn -2.308728 0 1.721155
vn -3.594587 0 -4.821717
vn 2.308728 0 -1.721155
vn 0 1.322867 0
vn 0 -1.322867 0

usemtl BrickWell
f 27/30/19 28/31/19 26/29/19 25/28/19
f 28/30/20 30/31/20 29/29/20 26/28/20
f 30/33/21 32/30/21 31/28/21 29/32/21
f 32/33/22 27/30/22 25/28/22 31/32/22
f 32/34/23 30/35/23 28/32/23 27/28/23
f 25/28/24 26/29/24 29/36/24 31/34/24

g Cube (9)
v -97.80338 115.5071 -48.08321
v -99.00169 115.5071 -62.43169
v -97.80338 116.8299 -48.08321
v -99.00169 116.8299 -62.43169
v -69.03526 115.5071 -64.93433
v -69.03526 116.8299 -64.93433
v -67.83695 115.5071 -50.58585
v -67.83695 116.8299 -50.58585

vt 0 0
vt -5 0
vt 0 1
vt -5 1
vt 5 0
vt 5 1
vt 0 -5
vt 5 -5
vt -5 -5

vn -5.993287 0 0.5005278
vn -0.239662 0 -2.869697
vn 5.993287 0 -0.5005278
vn 0.239662 0 2.869697
vn 0 1.322867 0
vn 0 -1.322867 0

usemtl BrickWell
f 35/39/25 36/40/25 34/38/25 33/37/25
f 36/39/26 38/40/26 37/38/26 34/37/26
f 38/42/27 40/39/27 39/37/27 37/41/27
f 40/42/28 35/39/28 33/37/28 39/41/28
f 40/43/29 38/44/29 36/41/29 35/37/29
f 33/37/30 34/38/30 37/45/30 39/43/30

g Cube (10)
v -81.33369 115.5071 -30.97854
v -92.87733 115.5071 -22.37276
v -81.33369 116.8299 -30.97854
v -92.87733 116.8299 -22.37276
v -110.8503 115.5071 -46.48135
v -110.8503 116.8299 -46.48135
v -99.30663 115.5071 -55.08712
v -99.30663 116.8299 -55.08712

vt 0 0
vt -5 0
vt 0 1
vt -5 1
vt 5 0
vt 5 1
vt 0 -5
vt 5 -5
vt -5 -5

vn 3.594587 0 4.821717
vn -2.308728 0 1.721155
vn -3.594587 0 -4.821717
vn 2.308728 0 -1.721155
vn 0 1.322867 0
vn 0 -1.322867 0

usemtl BrickWell
f 43/48/31 44/49/31 42/47/31 41/46/31
f 44/48/32 46/49/32 45/47/32 42/46/32
f 46/51/33 48/48/33 47/46/33 45/50/33
f 48/51/34 43/48/34 41/46/34 47/50/34
f 48/52/35 46/53/35 44/50/35 43/46/35
f 41/46/36 42/47/36 45/54/36 47/52/36

